<mxfile host="app.diagrams.net" modified="2024-01-18T16:33:50.175Z" agent="Mozilla/5.0 (Macintosh; Intel Mac OS X 10_15_7) AppleWebKit/537.36 (KHTML, like Gecko) Chrome/120.0.0.0 Safari/537.36" etag="q_1BXO5XldHPk2WN1QBT" version="22.1.21" type="github">
  <diagram name="Page-1" id="lH3FkR6_-ZIhhkzHcMF6">
    <mxGraphModel dx="826" dy="473" grid="1" gridSize="10" guides="1" tooltips="1" connect="1" arrows="1" fold="1" page="1" pageScale="1" pageWidth="1700" pageHeight="1100" math="0" shadow="0">
      <root>
        <mxCell id="0" />
        <mxCell id="1" parent="0" />
        <mxCell id="0WkOLYUlHgebMBD-Kx1w-1" value="Actor" style="shape=umlActor;verticalLabelPosition=bottom;verticalAlign=top;html=1;" vertex="1" parent="1">
          <mxGeometry x="50" y="405" width="30" height="60" as="geometry" />
        </mxCell>
        <mxCell id="0WkOLYUlHgebMBD-Kx1w-16" style="edgeStyle=orthogonalEdgeStyle;rounded=0;orthogonalLoop=1;jettySize=auto;html=1;entryX=0;entryY=0.5;entryDx=0;entryDy=0;" edge="1" parent="1" source="0WkOLYUlHgebMBD-Kx1w-2" target="0WkOLYUlHgebMBD-Kx1w-9">
          <mxGeometry relative="1" as="geometry" />
        </mxCell>
        <mxCell id="0WkOLYUlHgebMBD-Kx1w-17" style="edgeStyle=orthogonalEdgeStyle;rounded=0;orthogonalLoop=1;jettySize=auto;html=1;entryX=0;entryY=0.5;entryDx=0;entryDy=0;" edge="1" parent="1" source="0WkOLYUlHgebMBD-Kx1w-2" target="0WkOLYUlHgebMBD-Kx1w-10">
          <mxGeometry relative="1" as="geometry" />
        </mxCell>
        <object label="" id="0WkOLYUlHgebMBD-Kx1w-2">
          <mxCell style="verticalLabelPosition=bottom;verticalAlign=top;html=1;shape=mxgraph.basic.patternFillRect;fillStyle=diag;step=5;fillStrokeWidth=0.2;fillStrokeColor=#dddddd;" vertex="1" parent="1">
            <mxGeometry x="300" y="412.5" width="60" height="175" as="geometry" />
          </mxCell>
        </object>
        <mxCell id="0WkOLYUlHgebMBD-Kx1w-3" style="edgeStyle=orthogonalEdgeStyle;rounded=0;orthogonalLoop=1;jettySize=auto;html=1;entryX=0;entryY=0.5;entryDx=0;entryDy=0;entryPerimeter=0;" edge="1" parent="1" source="0WkOLYUlHgebMBD-Kx1w-1" target="0WkOLYUlHgebMBD-Kx1w-2">
          <mxGeometry relative="1" as="geometry" />
        </mxCell>
        <mxCell id="0WkOLYUlHgebMBD-Kx1w-4" value="" style="shape=message;html=1;html=1;outlineConnect=0;labelPosition=center;verticalLabelPosition=bottom;align=center;verticalAlign=top;" vertex="1" parent="1">
          <mxGeometry x="150" y="405" width="30" height="20" as="geometry" />
        </mxCell>
        <mxCell id="0WkOLYUlHgebMBD-Kx1w-5" value="Actor" style="shape=umlActor;verticalLabelPosition=bottom;verticalAlign=top;html=1;" vertex="1" parent="1">
          <mxGeometry x="50" y="545" width="30" height="60" as="geometry" />
        </mxCell>
        <mxCell id="0WkOLYUlHgebMBD-Kx1w-6" style="edgeStyle=orthogonalEdgeStyle;rounded=0;orthogonalLoop=1;jettySize=auto;html=1;entryX=0;entryY=0.5;entryDx=0;entryDy=0;entryPerimeter=0;" edge="1" parent="1" source="0WkOLYUlHgebMBD-Kx1w-5" target="0WkOLYUlHgebMBD-Kx1w-2">
          <mxGeometry relative="1" as="geometry" />
        </mxCell>
        <mxCell id="0WkOLYUlHgebMBD-Kx1w-7" value="" style="shape=message;html=1;html=1;outlineConnect=0;labelPosition=center;verticalLabelPosition=bottom;align=center;verticalAlign=top;" vertex="1" parent="1">
          <mxGeometry x="150" y="585" width="30" height="20" as="geometry" />
        </mxCell>
        <mxCell id="0WkOLYUlHgebMBD-Kx1w-18" style="edgeStyle=orthogonalEdgeStyle;rounded=0;orthogonalLoop=1;jettySize=auto;html=1;entryX=0;entryY=0.5;entryDx=0;entryDy=0;" edge="1" parent="1" source="0WkOLYUlHgebMBD-Kx1w-8" target="0WkOLYUlHgebMBD-Kx1w-11">
          <mxGeometry relative="1" as="geometry" />
        </mxCell>
        <mxCell id="0WkOLYUlHgebMBD-Kx1w-20" style="edgeStyle=orthogonalEdgeStyle;rounded=0;orthogonalLoop=1;jettySize=auto;html=1;entryX=0;entryY=0.5;entryDx=0;entryDy=0;" edge="1" parent="1" source="0WkOLYUlHgebMBD-Kx1w-8" target="0WkOLYUlHgebMBD-Kx1w-12">
          <mxGeometry relative="1" as="geometry" />
        </mxCell>
        <mxCell id="0WkOLYUlHgebMBD-Kx1w-21" style="edgeStyle=orthogonalEdgeStyle;rounded=0;orthogonalLoop=1;jettySize=auto;html=1;entryX=0;entryY=0.5;entryDx=0;entryDy=0;" edge="1" parent="1" source="0WkOLYUlHgebMBD-Kx1w-8" target="0WkOLYUlHgebMBD-Kx1w-13">
          <mxGeometry relative="1" as="geometry" />
        </mxCell>
        <mxCell id="0WkOLYUlHgebMBD-Kx1w-8" value="&lt;p style=&quot;line-height: 80%; font-size: 14px;&quot;&gt;&lt;b&gt;L&lt;br&gt;o&lt;br&gt;a&lt;br&gt;d&lt;br&gt;&lt;br&gt;b&lt;br&gt;a&lt;br&gt;l&lt;br&gt;a&lt;br&gt;n&lt;br&gt;c&lt;br&gt;e&lt;br&gt;r&lt;/b&gt;&lt;/p&gt;" style="text;html=1;strokeColor=none;fillColor=none;align=center;verticalAlign=middle;whiteSpace=wrap;rounded=0;" vertex="1" parent="1">
          <mxGeometry x="300" y="485" width="60" height="30" as="geometry" />
        </mxCell>
        <mxCell id="0WkOLYUlHgebMBD-Kx1w-9" value="" style="ellipse;whiteSpace=wrap;html=1;" vertex="1" parent="1">
          <mxGeometry x="750" y="310" width="120" height="60" as="geometry" />
        </mxCell>
        <mxCell id="0WkOLYUlHgebMBD-Kx1w-10" value="" style="ellipse;whiteSpace=wrap;html=1;" vertex="1" parent="1">
          <mxGeometry x="750" y="390" width="120" height="60" as="geometry" />
        </mxCell>
        <mxCell id="0WkOLYUlHgebMBD-Kx1w-11" value="" style="ellipse;whiteSpace=wrap;html=1;" vertex="1" parent="1">
          <mxGeometry x="750" y="470" width="120" height="60" as="geometry" />
        </mxCell>
        <mxCell id="0WkOLYUlHgebMBD-Kx1w-12" value="" style="ellipse;whiteSpace=wrap;html=1;" vertex="1" parent="1">
          <mxGeometry x="750" y="550" width="120" height="60" as="geometry" />
        </mxCell>
        <mxCell id="0WkOLYUlHgebMBD-Kx1w-13" value="" style="ellipse;whiteSpace=wrap;html=1;" vertex="1" parent="1">
          <mxGeometry x="750" y="630" width="120" height="60" as="geometry" />
        </mxCell>
        <mxCell id="0WkOLYUlHgebMBD-Kx1w-22" value="" style="strokeWidth=2;html=1;shape=mxgraph.flowchart.direct_data;whiteSpace=wrap;" vertex="1" parent="1">
          <mxGeometry x="570" y="310" width="140" height="20" as="geometry" />
        </mxCell>
        <mxCell id="0WkOLYUlHgebMBD-Kx1w-23" value="" style="strokeWidth=2;html=1;shape=mxgraph.flowchart.direct_data;whiteSpace=wrap;" vertex="1" parent="1">
          <mxGeometry x="570" y="390" width="140" height="20" as="geometry" />
        </mxCell>
        <mxCell id="0WkOLYUlHgebMBD-Kx1w-24" value="" style="strokeWidth=2;html=1;shape=mxgraph.flowchart.direct_data;whiteSpace=wrap;" vertex="1" parent="1">
          <mxGeometry x="570" y="470" width="140" height="20" as="geometry" />
        </mxCell>
        <mxCell id="0WkOLYUlHgebMBD-Kx1w-25" value="" style="strokeWidth=2;html=1;shape=mxgraph.flowchart.direct_data;whiteSpace=wrap;" vertex="1" parent="1">
          <mxGeometry x="570" y="550" width="140" height="20" as="geometry" />
        </mxCell>
        <mxCell id="0WkOLYUlHgebMBD-Kx1w-26" value="" style="strokeWidth=2;html=1;shape=mxgraph.flowchart.direct_data;whiteSpace=wrap;" vertex="1" parent="1">
          <mxGeometry x="570" y="630" width="140" height="20" as="geometry" />
        </mxCell>
        <mxCell id="0WkOLYUlHgebMBD-Kx1w-27" value="Worker&lt;br&gt;Process" style="text;html=1;strokeColor=none;fillColor=none;align=center;verticalAlign=middle;whiteSpace=wrap;rounded=0;" vertex="1" parent="1">
          <mxGeometry x="780" y="325" width="60" height="30" as="geometry" />
        </mxCell>
        <mxCell id="0WkOLYUlHgebMBD-Kx1w-28" value="Worker&lt;br&gt;Process" style="text;html=1;strokeColor=none;fillColor=none;align=center;verticalAlign=middle;whiteSpace=wrap;rounded=0;" vertex="1" parent="1">
          <mxGeometry x="780" y="405" width="60" height="30" as="geometry" />
        </mxCell>
        <mxCell id="0WkOLYUlHgebMBD-Kx1w-29" value="Worker&lt;br&gt;Process" style="text;html=1;strokeColor=none;fillColor=none;align=center;verticalAlign=middle;whiteSpace=wrap;rounded=0;" vertex="1" parent="1">
          <mxGeometry x="780" y="485" width="60" height="30" as="geometry" />
        </mxCell>
        <mxCell id="0WkOLYUlHgebMBD-Kx1w-30" value="Worker&lt;br&gt;Process" style="text;html=1;strokeColor=none;fillColor=none;align=center;verticalAlign=middle;whiteSpace=wrap;rounded=0;" vertex="1" parent="1">
          <mxGeometry x="780" y="565" width="60" height="30" as="geometry" />
        </mxCell>
        <mxCell id="0WkOLYUlHgebMBD-Kx1w-31" value="Worker&lt;br&gt;Process" style="text;html=1;strokeColor=none;fillColor=none;align=center;verticalAlign=middle;whiteSpace=wrap;rounded=0;" vertex="1" parent="1">
          <mxGeometry x="780" y="645" width="60" height="30" as="geometry" />
        </mxCell>
        <mxCell id="0WkOLYUlHgebMBD-Kx1w-32" value="" style="shape=cylinder3;whiteSpace=wrap;html=1;boundedLbl=1;backgroundOutline=1;size=15;" vertex="1" parent="1">
          <mxGeometry x="1080" y="440" width="160" height="80" as="geometry" />
        </mxCell>
        <mxCell id="0WkOLYUlHgebMBD-Kx1w-35" style="edgeStyle=orthogonalEdgeStyle;rounded=0;orthogonalLoop=1;jettySize=auto;html=1;entryX=0;entryY=0.5;entryDx=0;entryDy=0;entryPerimeter=0;" edge="1" parent="1" source="0WkOLYUlHgebMBD-Kx1w-9" target="0WkOLYUlHgebMBD-Kx1w-32">
          <mxGeometry relative="1" as="geometry" />
        </mxCell>
        <mxCell id="0WkOLYUlHgebMBD-Kx1w-36" style="edgeStyle=orthogonalEdgeStyle;rounded=0;orthogonalLoop=1;jettySize=auto;html=1;entryX=0;entryY=0.5;entryDx=0;entryDy=0;entryPerimeter=0;" edge="1" parent="1" source="0WkOLYUlHgebMBD-Kx1w-10" target="0WkOLYUlHgebMBD-Kx1w-32">
          <mxGeometry relative="1" as="geometry" />
        </mxCell>
        <mxCell id="0WkOLYUlHgebMBD-Kx1w-37" style="edgeStyle=orthogonalEdgeStyle;rounded=0;orthogonalLoop=1;jettySize=auto;html=1;entryX=0;entryY=0.5;entryDx=0;entryDy=0;entryPerimeter=0;" edge="1" parent="1" source="0WkOLYUlHgebMBD-Kx1w-11" target="0WkOLYUlHgebMBD-Kx1w-32">
          <mxGeometry relative="1" as="geometry" />
        </mxCell>
        <mxCell id="0WkOLYUlHgebMBD-Kx1w-38" style="edgeStyle=orthogonalEdgeStyle;rounded=0;orthogonalLoop=1;jettySize=auto;html=1;entryX=0;entryY=0.5;entryDx=0;entryDy=0;entryPerimeter=0;" edge="1" parent="1" source="0WkOLYUlHgebMBD-Kx1w-12" target="0WkOLYUlHgebMBD-Kx1w-32">
          <mxGeometry relative="1" as="geometry" />
        </mxCell>
        <mxCell id="0WkOLYUlHgebMBD-Kx1w-39" style="edgeStyle=orthogonalEdgeStyle;rounded=0;orthogonalLoop=1;jettySize=auto;html=1;entryX=0;entryY=0.5;entryDx=0;entryDy=0;entryPerimeter=0;" edge="1" parent="1" source="0WkOLYUlHgebMBD-Kx1w-13" target="0WkOLYUlHgebMBD-Kx1w-32">
          <mxGeometry relative="1" as="geometry" />
        </mxCell>
        <mxCell id="0WkOLYUlHgebMBD-Kx1w-40" value="REDIS" style="text;html=1;strokeColor=none;fillColor=none;align=center;verticalAlign=middle;whiteSpace=wrap;rounded=0;" vertex="1" parent="1">
          <mxGeometry x="1130" y="480" width="60" height="30" as="geometry" />
        </mxCell>
        <mxCell id="0WkOLYUlHgebMBD-Kx1w-41" value="" style="endArrow=none;dashed=1;html=1;dashPattern=1 3;strokeWidth=2;rounded=0;" edge="1" parent="1">
          <mxGeometry width="50" height="50" relative="1" as="geometry">
            <mxPoint x="240" y="250" as="sourcePoint" />
            <mxPoint x="1320" y="250" as="targetPoint" />
          </mxGeometry>
        </mxCell>
        <mxCell id="0WkOLYUlHgebMBD-Kx1w-42" value="" style="endArrow=none;dashed=1;html=1;dashPattern=1 3;strokeWidth=2;rounded=0;" edge="1" parent="1">
          <mxGeometry width="50" height="50" relative="1" as="geometry">
            <mxPoint x="240" y="760" as="sourcePoint" />
            <mxPoint x="240" y="250" as="targetPoint" />
          </mxGeometry>
        </mxCell>
        <mxCell id="0WkOLYUlHgebMBD-Kx1w-43" value="" style="endArrow=none;dashed=1;html=1;dashPattern=1 3;strokeWidth=2;rounded=0;" edge="1" parent="1">
          <mxGeometry width="50" height="50" relative="1" as="geometry">
            <mxPoint x="1320" y="760" as="sourcePoint" />
            <mxPoint x="1320" y="240" as="targetPoint" />
          </mxGeometry>
        </mxCell>
        <mxCell id="0WkOLYUlHgebMBD-Kx1w-44" value="" style="endArrow=none;dashed=1;html=1;dashPattern=1 3;strokeWidth=2;rounded=0;" edge="1" parent="1">
          <mxGeometry width="50" height="50" relative="1" as="geometry">
            <mxPoint x="240" y="760" as="sourcePoint" />
            <mxPoint x="1320" y="760" as="targetPoint" />
          </mxGeometry>
        </mxCell>
        <mxCell id="0WkOLYUlHgebMBD-Kx1w-45" value="" style="rounded=0;whiteSpace=wrap;html=1;" vertex="1" parent="1">
          <mxGeometry x="1150" y="680" width="120" height="60" as="geometry" />
        </mxCell>
        <mxCell id="0WkOLYUlHgebMBD-Kx1w-46" value="Server" style="text;html=1;strokeColor=none;fillColor=none;align=center;verticalAlign=middle;whiteSpace=wrap;rounded=0;" vertex="1" parent="1">
          <mxGeometry x="1180" y="695" width="60" height="30" as="geometry" />
        </mxCell>
      </root>
    </mxGraphModel>
  </diagram>
</mxfile>
